<?xml version="1.0" encoding="UTF-8"?>
<svg width="812px" height="288px" viewBox="0 0 812 288" version="1.1" xmlns="http://www.w3.org/2000/svg" xmlns:xlink="http://www.w3.org/1999/xlink">
    <!-- Generator: Sketch 51.3 (57544) - http://www.bohemiancoding.com/sketch -->
    <title>Group Copy 2</title>
    <desc>Created with Sketch.</desc>
    <defs>
        <rect id="path-1" x="0" y="0" width="792" height="268" rx="8"></rect>
        <filter x="-2.1%" y="-5.0%" width="104.2%" height="112.3%" filterUnits="objectBoundingBox" id="filter-2">
            <feOffset dx="0" dy="3" in="SourceAlpha" result="shadowOffsetOuter1"></feOffset>
            <feGaussianBlur stdDeviation="5" in="shadowOffsetOuter1" result="shadowBlurOuter1"></feGaussianBlur>
            <feComposite in="shadowBlurOuter1" in2="SourceAlpha" operator="out" result="shadowBlurOuter1"></feComposite>
            <feColorMatrix values="0 0 0 0 0   0 0 0 0 0   0 0 0 0 0  0 0 0 0.498131793 0" type="matrix" in="shadowBlurOuter1"></feColorMatrix>
        </filter>
    </defs>
    <g id="Page-1" stroke="none" stroke-width="1" fill="none" fill-rule="evenodd">
        <g id="Group-Copy-2" transform="translate(10.000000, 7.000000)" fill-rule="nonzero">
            <g id="Rectangle-2">
                <use fill="black" fill-opacity="1" filter="url(#filter-2)" xlink:href="#path-1"></use>
                <rect stroke="#B2B2B2" stroke-width="1" stroke-linejoin="square" fill="#D4D4D4" fill-rule="evenodd" x="0.5" y="0.5" width="791" height="267" rx="8"></rect>
            </g>
            <circle id="Oval" stroke="#979797" fill="#6405FF" cx="8" cy="24" r="8"></circle>
            <circle id="Oval-Copy-15" stroke="#979797" fill="#6405FF" cx="8" cy="72" r="8"></circle>
            <circle id="Oval-Copy-17" stroke="#979797" fill="#6405FF" cx="8" cy="120" r="8"></circle>
            <circle id="Oval-Copy-19" stroke="#979797" fill="#6405FF" cx="8" cy="168" r="8"></circle>
            <circle id="Oval-Copy-21" stroke="#979797" fill="#6405FF" cx="8" cy="216" r="8"></circle>
            <circle id="Oval-Copy-23" stroke="#979797" fill="#6405FF" cx="8" cy="260" r="8"></circle>
            <circle id="Oval-Copy-25" stroke="#979797" fill="#6405FF" cx="61" cy="260" r="8"></circle>
            <circle id="Oval-Copy-26" stroke="#979797" fill="#6405FF" cx="117" cy="260" r="8"></circle>
            <circle id="Oval-Copy-27" stroke="#979797" fill="#6405FF" cx="173" cy="260" r="8"></circle>
            <circle id="Oval-Copy-28" stroke="#979797" fill="#6405FF" cx="229" cy="260" r="8"></circle>
            <circle id="Oval-Copy-29" stroke="#979797" fill="#6405FF" cx="285" cy="260" r="8"></circle>
            <circle id="Oval-Copy-30" stroke="#979797" fill="#6405FF" cx="341" cy="260" r="8"></circle>
            <circle id="Oval-Copy-31" stroke="#979797" fill="#6405FF" cx="397" cy="260" r="8"></circle>
            <circle id="Oval-Copy-32" stroke="#979797" fill="#6405FF" cx="453" cy="260" r="8"></circle>
            <circle id="Oval-Copy-33" stroke="#979797" fill="#6405FF" cx="509" cy="260" r="8"></circle>
            <circle id="Oval-Copy-34" stroke="#979797" fill="#6405FF" cx="565" cy="260" r="8"></circle>
            <circle id="Oval-Copy-35" stroke="#979797" fill="#6405FF" cx="621" cy="260" r="8"></circle>
            <circle id="Oval-Copy-36" stroke="#979797" fill="#6405FF" cx="677" cy="260" r="8"></circle>
            <circle id="Oval-Copy-37" stroke="#979797" fill="#6405FF" cx="733" cy="260" r="8"></circle>
            <circle id="Oval-Copy-22" stroke="#979797" fill="#6405FF" cx="784" cy="216" r="8"></circle>
            <circle id="Oval-Copy-24" stroke="#979797" fill="#6405FF" cx="784" cy="260" r="8"></circle>
            <circle id="Oval-Copy-20" stroke="#979797" fill="#6405FF" cx="784" cy="168" r="8"></circle>
            <circle id="Oval-Copy" stroke="#979797" fill="#6405FF" cx="109" cy="8" r="8"></circle>
            <circle id="Oval-Copy-2" stroke="#979797" fill="#6405FF" cx="157" cy="8" r="8"></circle>
            <circle id="Oval-Copy-3" stroke="#979797" fill="#6405FF" cx="205" cy="8" r="8"></circle>
            <circle id="Oval-Copy-4" stroke="#979797" fill="#6405FF" cx="253" cy="8" r="8"></circle>
            <circle id="Oval-Copy-5" stroke="#979797" fill="#6405FF" cx="301" cy="8" r="8"></circle>
            <circle id="Oval-Copy-6" stroke="#979797" fill="#6405FF" cx="349" cy="8" r="8"></circle>
            <circle id="Oval-Copy-7" stroke="#979797" fill="#6405FF" cx="397" cy="8" r="8"></circle>
            <circle id="Oval-Copy-8" stroke="#979797" fill="#6405FF" cx="445" cy="8" r="8"></circle>
            <circle id="Oval-Copy-9" stroke="#979797" fill="#6405FF" cx="493" cy="8" r="8"></circle>
            <circle id="Oval-Copy-10" stroke="#979797" fill="#6405FF" cx="541" cy="8" r="8"></circle>
            <circle id="Oval-Copy-11" stroke="#979797" fill="#6405FF" cx="589" cy="8" r="8"></circle>
            <circle id="Oval-Copy-12" stroke="#979797" fill="#6405FF" cx="637" cy="8" r="8"></circle>
            <circle id="Oval-Copy-13" stroke="#979797" fill="#6405FF" cx="685" cy="8" r="8"></circle>
            <circle id="Oval-Copy-14" stroke="#979797" fill="#6405FF" cx="784" cy="24" r="8"></circle>
            <circle id="Oval-Copy-16" stroke="#979797" fill="#6405FF" cx="784" cy="72" r="8"></circle>
            <circle id="Oval-Copy-18" stroke="#979797" fill="#6405FF" cx="784" cy="120" r="8"></circle>
            <g id="Row-5" transform="translate(16.000000, 208.000000)" fill="#6405FF" stroke="#979797">
                <rect id="Rectangle-Copy-44" x="0.5" y="0.5" width="54" height="43" rx="3"></rect>
                <rect id="Rectangle-Copy-57" x="59.5" y="0.5" width="54" height="43" rx="3"></rect>
                <rect id="Rectangle-Copy-58" x="118.5" y="0.5" width="54" height="43" rx="3"></rect>
                <rect id="Rectangle-Copy-60" x="478.5" y="0.5" width="54" height="43" rx="3"></rect>
                <rect id="Rectangle-Copy-61" x="537.5" y="0.5" width="54" height="43" rx="3"></rect>
                <rect id="Rectangle-Copy-62" x="620.5" y="0.5" width="43" height="43" rx="3"></rect>
                <rect id="Rectangle-Copy-63" x="668.5" y="0.5" width="43" height="43" rx="3"></rect>
                <rect id="Rectangle-Copy-64" x="716.5" y="0.5" width="43" height="43" rx="3"></rect>
                <rect id="Rectangle-Copy-59" x="177.5" y="0.5" width="296" height="43" rx="3"></rect>
            </g>
            <g id="Row-4" transform="translate(16.000000, 160.000000)" fill="#6405FF" stroke="#979797">
                <rect id="Rectangle-Copy-28" x="0.5" y="0.5" width="100" height="43" rx="3"></rect>
                <rect id="Rectangle-Copy-44" x="105.5" y="0.5" width="43" height="43" rx="3"></rect>
                <rect id="Rectangle-Copy-45" x="153.5" y="0.5" width="43" height="43" rx="3"></rect>
                <rect id="Rectangle-Copy-46" x="201.5" y="0.5" width="43" height="43" rx="3"></rect>
                <rect id="Rectangle-Copy-47" x="249.5" y="0.5" width="43" height="43" rx="3"></rect>
                <rect id="Rectangle-Copy-48" x="297.5" y="0.5" width="43" height="43" rx="3"></rect>
                <rect id="Rectangle-Copy-49" x="345.5" y="0.5" width="43" height="43" rx="3"></rect>
                <rect id="Rectangle-Copy-50" x="393.5" y="0.5" width="43" height="43" rx="3"></rect>
                <rect id="Rectangle-Copy-51" x="441.5" y="0.5" width="43" height="43" rx="3"></rect>
                <rect id="Rectangle-Copy-52" x="489.5" y="0.5" width="43" height="43" rx="3"></rect>
                <rect id="Rectangle-Copy-53" x="537.5" y="0.5" width="43" height="43" rx="3"></rect>
                <rect id="Rectangle-Copy-56" x="585.5" y="0.5" width="78" height="43" rx="3"></rect>
                <rect id="Rectangle-Copy-54" x="668.5" y="0.5" width="43" height="43" rx="3"></rect>
                <rect id="Rectangle-Copy-55" x="716.5" y="0.5" width="43" height="43" rx="3"></rect>
            </g>
            <g id="Row-3" transform="translate(16.000000, 112.000000)" stroke="#979797">
                <rect id="Rectangle-Copy-29" fill="#6405FF" x="0.5" y="0.5" width="78" height="43" rx="3"></rect>
                <rect id="Rectangle-Copy-28" fill="#E21262" x="83.5" y="0.5" width="43" height="43" rx="3"></rect>
                <rect id="Rectangle-Copy-30" fill="#E21262" x="131.5" y="0.5" width="43" height="43" rx="3"></rect>
                <rect id="Rectangle-Copy-31" fill="#E21262" x="179.5" y="0.5" width="43" height="43" rx="3"></rect>
                <rect id="Rectangle-Copy-32" fill="#6405FF" x="227.5" y="0.5" width="43" height="43" rx="3"></rect>
                <rect id="Rectangle-Copy-33" fill="#6405FF" x="275.5" y="0.5" width="43" height="43" rx="3"></rect>
                <rect id="Rectangle-Copy-34" fill="#6405FF" x="323.5" y="0.5" width="43" height="43" rx="3"></rect>
                <rect id="Rectangle-Copy-35" fill="#6405FF" x="371.5" y="0.5" width="43" height="43" rx="3"></rect>
                <rect id="Rectangle-Copy-36" fill="#6405FF" x="419.5" y="0.5" width="43" height="43" rx="3"></rect>
                <rect id="Rectangle-Copy-37" fill="#6405FF" x="467.5" y="0.5" width="43" height="43" rx="3"></rect>
                <rect id="Rectangle-Copy-38" fill="#6405FF" x="515.5" y="0.5" width="43" height="43" rx="3"></rect>
                <rect id="Rectangle-Copy-42" fill="#6405FF" x="563.5" y="0.5" width="43" height="43" rx="3"></rect>
                <rect id="Rectangle-Copy-43" fill="#6405FF" x="716.5" y="0.5" width="43" height="43" rx="3"></rect>
                <rect id="Rectangle-Copy-39" fill="#6405FF" x="611.5" y="0.5" width="100" height="43" rx="3"></rect>
            </g>
            <g id="Row-2" transform="translate(16.000000, 64.000000)" stroke="#979797">
                <rect id="Rectangle-Copy-14" fill="#6405FF" x="0.5" y="0.5" width="65" height="43" rx="3"></rect>
                <rect id="Rectangle-Copy-15" fill="#6405FF" x="70.5" y="0.5" width="43" height="43" rx="3"></rect>
                <rect id="Rectangle-Copy-16" fill="#E21262" x="118.5" y="0.5" width="43" height="43" rx="3"></rect>
                <rect id="Rectangle-Copy-17" fill="#6405FF" x="166.5" y="0.5" width="43" height="43" rx="3"></rect>
                <rect id="Rectangle-Copy-18" fill="#6405FF" x="214.5" y="0.5" width="43" height="43" rx="3"></rect>
                <rect id="Rectangle-Copy-19" fill="#6405FF" x="262.5" y="0.5" width="43" height="43" rx="3"></rect>
                <rect id="Rectangle-Copy-20" fill="#6405FF" x="310.5" y="0.5" width="43" height="43" rx="3"></rect>
                <rect id="Rectangle-Copy-21" fill="#6405FF" x="358.5" y="0.5" width="43" height="43" rx="3"></rect>
                <rect id="Rectangle-Copy-22" fill="#6405FF" x="406.5" y="0.5" width="43" height="43" rx="3"></rect>
                <rect id="Rectangle-Copy-23" fill="#6405FF" x="454.5" y="0.5" width="43" height="43" rx="3"></rect>
                <rect id="Rectangle-Copy-24" fill="#6405FF" x="502.5" y="0.5" width="43" height="43" rx="3"></rect>
                <rect id="Rectangle-Copy-25" fill="#6405FF" x="550.5" y="0.5" width="43" height="43" rx="3"></rect>
                <rect id="Rectangle-Copy-41" fill="#6405FF" x="598.5" y="0.5" width="43" height="43" rx="3"></rect>
                <rect id="Rectangle-Copy-26" fill="#6405FF" x="646.5" y="0.5" width="65" height="43" rx="3"></rect>
                <rect id="Rectangle-Copy-27" fill="#6405FF" x="716.5" y="0.5" width="43" height="43" rx="3"></rect>
            </g>
            <g id="Row-1" transform="translate(16.000000, 16.000000)" fill="#6405FF" stroke="#979797">
                <rect id="Rectangle-Copy-10" x="0.5" y="0.5" width="43" height="43" rx="3"></rect>
                <rect id="Rectangle-Copy" x="48.5" y="0.5" width="43" height="43" rx="3"></rect>
                <rect id="Rectangle-Copy-2" x="96.5" y="0.5" width="43" height="43" rx="3"></rect>
                <rect id="Rectangle-Copy-3" x="144.5" y="0.5" width="43" height="43" rx="3"></rect>
                <rect id="Rectangle-Copy-4" x="192.5" y="0.5" width="43" height="43" rx="3"></rect>
                <rect id="Rectangle-Copy-5" x="240.5" y="0.5" width="43" height="43" rx="3"></rect>
                <rect id="Rectangle-Copy-6" x="288.5" y="0.5" width="43" height="43" rx="3"></rect>
                <rect id="Rectangle-Copy-7" x="336.5" y="0.5" width="43" height="43" rx="3"></rect>
                <rect id="Rectangle-Copy-8" x="432.5" y="0.5" width="43" height="43" rx="3"></rect>
                <rect id="Rectangle-Copy-9" x="384.5" y="0.5" width="43" height="43" rx="3"></rect>
                <rect id="Rectangle-Copy-11" x="480.5" y="0.5" width="43" height="43" rx="3"></rect>
                <rect id="Rectangle-Copy-13" x="528.5" y="0.5" width="43" height="43" rx="3"></rect>
                <rect id="Rectangle-Copy-40" x="576.5" y="0.5" width="43" height="43" rx="3"></rect>
                <rect id="Rectangle" x="624.5" y="0.5" width="87" height="43" rx="3"></rect>
                <rect id="Rectangle-Copy-12" x="716.5" y="0.5" width="43" height="43" rx="3"></rect>
            </g>
        </g>
    </g>
</svg>